<svg width="261" height="64" viewBox="0 0 261 64" fill="none" xmlns="http://www.w3.org/2000/svg">
<g clip-path="url(#clip0_182_535)">
<path d="M11.9823 54.3443C13.5116 55.6602 16.4723 56.3181 20.8645 56.3181H22.569C22.569 56.3181 22.569 56.3181 22.569 56.3181C22.569 56.3182 22.569 56.3182 22.569 56.3182L36.5214 56.5577C36.5216 56.5577 36.5217 56.5578 36.5217 56.558C36.5217 56.5581 36.5218 56.5582 36.5219 56.5582H38.1754C42.5676 56.5582 45.5283 55.9002 47.0576 54.5844C48.5513 53.2685 49.2981 50.6456 49.2981 46.7158V40.3409C49.2981 38.9539 49.4848 37.8158 49.8583 36.9267C50.2317 36.0376 50.7918 35.3174 51.5387 34.7662C52.9079 33.7348 54.8995 33.2191 57.5135 33.2191H58.4309C58.867 33.2191 59.2205 32.8656 59.2205 32.4294V30.1945C59.2205 29.7584 58.867 29.4049 58.4309 29.4049H57.5135C56.2865 29.4049 55.1573 29.2804 54.126 29.0314C53.1124 28.7825 52.2499 28.4002 51.5387 27.8845C50.7918 27.351 50.2317 26.6486 49.8583 25.7773C49.4848 24.8882 49.2981 23.7501 49.2981 22.3631V15.9616C49.2981 12.0139 48.5513 9.39106 47.0576 8.09296C45.5994 6.79487 42.6387 6.14582 38.1754 6.14582H36.5232C36.5223 6.14582 36.5217 6.14649 36.5217 6.14732C36.5217 6.14816 36.521 6.14884 36.5201 6.14883L22.5717 5.90612C22.5716 5.90612 22.5716 5.90604 22.5716 5.90594C22.5716 5.90584 22.5715 5.90576 22.5714 5.90576H20.8645C16.4012 5.90576 13.4404 6.55481 11.9823 7.85291C10.4708 9.151 9.71509 11.7739 9.71509 15.7215V22.1231C9.71509 24.7548 9.24386 26.5953 8.30141 27.6444C7.35895 28.658 5.63409 29.1648 3.12681 29.1648H0.822394C0.386266 29.1648 0.0327148 29.5183 0.0327148 29.9545V32.1894C0.0327148 32.6255 0.386266 32.9791 0.822394 32.9791H3.12681C5.6163 32.9791 7.34117 33.4947 8.30141 34.5261C9.24386 35.5753 9.71509 37.4335 9.71509 40.1008V46.4757C9.71509 50.4233 10.4708 53.0462 11.9823 54.3443Z" fill="#CE4257"/>
<path d="M21.645 21.1115C21.645 20.6753 21.9986 20.3218 22.4347 20.3218H26.3211C26.6775 20.3218 26.9897 20.5605 27.0831 20.9044L28.8305 27.3343C29.0418 28.1117 30.1447 28.1109 30.3549 27.3332L32.0919 20.9055C32.1849 20.561 32.4974 20.3218 32.8542 20.3218H36.7697C37.2058 20.3218 37.5594 20.6753 37.5594 21.1115V41.9262C37.5594 42.3623 37.2058 42.7159 36.7697 42.7159H33.7495H29.909H25.4549H22.4347C21.9986 42.7159 21.645 42.3623 21.645 41.9262V21.1115Z" fill="white"/>
</g>
<path d="M76.0679 13.0939H82.9411L86.4167 25.8835L89.8729 13.0939H96.7851V42.2465H91.8255V18.8932L88.7403 31.6438H84.1517L81.0275 18.8932V42.2465H76.0679V13.0939Z" fill="#040F0F"/>
<path d="M107.935 42.8127C105.67 42.8127 103.834 42.1684 102.428 40.8796C101.035 39.5779 100.339 37.7099 100.339 35.2756C100.339 33.7396 100.612 32.4899 101.159 31.5266C101.719 30.5503 102.474 29.7953 103.424 29.2616C104.387 28.7279 105.474 28.3634 106.685 28.1681C107.896 27.9598 109.165 27.8557 110.492 27.8557H114.456V26.8989C114.456 26.1179 114.248 25.5256 113.831 25.122C113.428 24.7185 112.901 24.4451 112.25 24.3019C111.612 24.1587 110.955 24.0871 110.278 24.0871C108.898 24.0871 107.57 24.2759 106.294 24.6534C105.032 25.0309 103.769 25.5646 102.506 26.2545V21.373C103.86 20.8263 105.201 20.4358 106.529 20.2014C107.869 19.9541 109.223 19.8304 110.59 19.8304C112.985 19.8304 114.879 20.1754 116.272 20.8653C117.665 21.5422 118.654 22.5966 119.24 24.0286C119.839 25.4475 120.138 27.2569 120.138 29.4568C120.138 29.9645 120.125 30.6154 120.099 31.4095C120.086 32.2035 120.08 32.9976 120.08 33.7916C120.08 34.4946 120.073 35.1585 120.06 35.7833C120.047 36.4081 120.041 36.9354 120.041 37.3649C120.041 37.7424 120.06 38.2371 120.099 38.8489C120.138 39.4477 120.23 40.0595 120.373 40.6844C120.516 41.3092 120.737 41.8299 121.037 42.2465H115.374C115.127 41.8299 114.944 41.4394 114.827 41.0749C114.71 40.7104 114.626 40.2873 114.573 39.8057C113.805 40.8341 112.842 41.5956 111.684 42.0903C110.538 42.5719 109.288 42.8127 107.935 42.8127ZM109.809 38.8489C111.007 38.8489 111.937 38.5235 112.601 37.8726C113.278 37.2087 113.753 36.3821 114.027 35.3928C114.313 34.3904 114.456 33.3816 114.456 32.3662V31.9757H112.172C111.274 31.9757 110.382 32.0408 109.497 32.171C108.611 32.2881 107.876 32.594 107.29 33.0887C106.717 33.5703 106.431 34.3709 106.431 35.4904C106.431 36.5578 106.724 37.3845 107.31 37.9702C107.909 38.556 108.742 38.8489 109.809 38.8489Z" fill="#040F0F"/>
<path d="M133.963 50.5256C131.49 50.5256 129.094 50.1676 126.777 49.4516V44.1991C128.886 45.3707 131.086 45.9564 133.377 45.9564C135.082 45.9564 136.319 45.5789 137.087 44.8239C137.868 44.0689 138.259 42.8778 138.259 41.2506V38.888C137.139 40.9447 135.291 41.9731 132.713 41.9731C131.177 41.9731 129.882 41.6607 128.828 41.0358C127.786 40.398 126.947 39.5584 126.309 38.517C125.671 37.4626 125.209 36.2975 124.922 35.0218C124.636 33.7461 124.493 32.4574 124.493 31.1556C124.493 29.8799 124.629 28.5847 124.903 27.2699C125.176 25.9421 125.619 24.712 126.231 23.5795C126.855 22.4469 127.676 21.5357 128.691 20.8458C129.719 20.1559 130.982 19.8109 132.479 19.8109C135.161 19.8109 137.087 20.9304 138.259 23.1694L138.825 20.3772H143.98V40.6063C143.98 44.108 143.192 46.6333 141.617 48.1824C140.042 49.7445 137.491 50.5256 133.963 50.5256ZM134.217 37.443C135.401 37.443 136.371 36.8377 137.126 35.6271C137.881 34.4165 138.259 32.8609 138.259 30.9604C138.259 29.0598 137.881 27.5107 137.126 26.3131C136.384 25.1025 135.421 24.4972 134.236 24.4972C133.052 24.4972 132.082 25.1025 131.327 26.3131C130.585 27.5107 130.214 29.0598 130.214 30.9604C130.214 32.8609 130.585 34.4165 131.327 35.6271C132.069 36.8377 133.032 37.443 134.217 37.443Z" fill="#040F0F"/>
<path d="M152.513 20.3772H155.715L155.559 23.1694C157.199 20.9564 159.406 19.85 162.178 19.85C164.248 19.85 165.849 20.5529 166.982 21.9588C168.127 23.3517 168.7 25.4344 168.7 28.2072C168.7 30.1728 168.42 32.0343 167.86 33.7916C167.301 35.549 166.526 37.1046 165.537 38.4584C164.547 39.8122 163.395 40.8796 162.081 41.6607C160.766 42.4287 159.347 42.8127 157.824 42.8127C155.325 42.8127 153.515 41.7062 152.396 39.4933L150.228 50.5646H146.635L152.513 20.3772ZM157.511 39.7666C158.917 39.7666 160.174 39.246 161.28 38.2046C162.4 37.1501 163.285 35.7638 163.936 34.0455C164.586 32.3272 164.912 30.4527 164.912 28.422C164.912 26.4824 164.593 25.0765 163.955 24.2043C163.317 23.3321 162.393 22.896 161.182 22.896C160.102 22.896 159.1 23.1954 158.175 23.7943C157.251 24.3931 156.444 25.2132 155.754 26.2545C155.077 27.2959 154.544 28.4805 154.153 29.8083C153.775 31.1361 153.587 32.5355 153.587 34.0064C153.587 35.9721 153.932 37.4235 154.622 38.3608C155.325 39.298 156.288 39.7666 157.511 39.7666Z" fill="#040F0F"/>
<path d="M180.806 42.8127C178.281 42.8127 176.354 42.1033 175.026 40.6844C173.712 39.2655 173.054 37.2022 173.054 34.4946C173.054 32.6201 173.347 30.7846 173.933 28.9882C174.532 27.1788 175.352 25.5646 176.393 24.1457C177.435 22.7268 178.619 21.6659 179.947 20.963C181.327 20.221 182.941 19.85 184.79 19.85C187.302 19.85 189.215 20.5529 190.53 21.9588C191.858 23.3647 192.522 25.4149 192.522 28.1095C192.522 29.8539 192.249 31.6242 191.702 33.4206C191.168 35.2171 190.426 36.8117 189.476 38.2046C187.354 41.2767 184.464 42.8127 180.806 42.8127ZM180.923 39.7666C182.433 39.7666 183.774 39.2655 184.946 38.2631C186.13 37.2478 187.055 35.9005 187.718 34.2212C188.395 32.529 188.734 30.6609 188.734 28.6172C188.734 26.6255 188.389 25.1741 187.699 24.2629C187.022 23.3517 186.026 22.896 184.711 22.896C183.201 22.896 181.854 23.4037 180.669 24.4191C179.498 25.4214 178.574 26.7687 177.897 28.461C177.22 30.1533 176.881 32.0213 176.881 34.065C176.881 36.0437 177.22 37.4886 177.897 38.3998C178.587 39.311 179.596 39.7666 180.923 39.7666Z" fill="#040F0F"/>
<path d="M205.696 42.4027C201.244 42.4027 199.018 40.6779 199.018 37.2282C199.018 36.9028 199.044 36.5188 199.096 36.0762C199.148 35.6206 199.246 35.0478 199.389 34.3579L203.509 14.6755H197.339L197.905 11.8638H207.668L202.982 34.436C202.943 34.6182 202.884 34.9892 202.806 35.549C202.741 36.1087 202.708 36.5448 202.708 36.8573C202.708 37.6383 202.995 38.2501 203.567 38.6927C204.153 39.1353 205.038 39.3566 206.223 39.3566H210.343L209.738 42.4027H205.696Z" fill="#040F0F"/>
<path d="M226.192 42.4027C221.74 42.4027 219.514 40.6779 219.514 37.2282C219.514 36.9028 219.54 36.5188 219.592 36.0762C219.644 35.6206 219.742 35.0478 219.885 34.3579L224.005 14.6755H217.835L218.401 11.8638H228.164L223.478 34.436C223.439 34.6182 223.38 34.9892 223.302 35.549C223.237 36.1087 223.204 36.5448 223.204 36.8573C223.204 37.6383 223.491 38.2501 224.064 38.6927C224.649 39.1353 225.535 39.3566 226.719 39.3566H230.839L230.234 42.4027H226.192Z" fill="#040F0F"/>
<path d="M242.295 42.8127C239.769 42.8127 237.843 42.1033 236.515 40.6844C235.2 39.2655 234.543 37.2022 234.543 34.4946C234.543 32.6201 234.836 30.7846 235.422 28.9882C236.02 27.1788 236.841 25.5646 237.882 24.1457C238.923 22.7268 240.108 21.6659 241.436 20.963C242.816 20.221 244.43 19.85 246.278 19.85C248.791 19.85 250.704 20.5529 252.019 21.9588C253.347 23.3647 254.011 25.4149 254.011 28.1095C254.011 29.8539 253.737 31.6242 253.19 33.4206C252.657 35.2171 251.915 36.8117 250.964 38.2046C248.843 41.2767 245.953 42.8127 242.295 42.8127ZM242.412 39.7666C243.922 39.7666 245.263 39.2655 246.434 38.2631C247.619 37.2478 248.543 35.9005 249.207 34.2212C249.884 32.529 250.222 30.6609 250.222 28.6172C250.222 26.6255 249.877 25.1741 249.188 24.2629C248.511 23.3517 247.515 22.896 246.2 22.896C244.69 22.896 243.343 23.4037 242.158 24.4191C240.987 25.4214 240.062 26.7687 239.385 28.461C238.709 30.1533 238.37 32.0213 238.37 34.065C238.37 36.0437 238.709 37.4886 239.385 38.3998C240.075 39.311 241.084 39.7666 242.412 39.7666Z" fill="#040F0F"/>
<defs>
<clipPath id="clip0_182_535">
<rect width="59.226" height="59.2259" fill="white" transform="translate(0 1.62842)"/>
</clipPath>
</defs>
</svg>
